I didn't snap that this was a Saturday race until it was on lap 67 so that is missing otherwise good to go.  

General
Complete name                    : NASCAR 2011 TEXAS #7 HDTV_JHW.mp4
Format                           : MPEG-4
Format profile                   : Base Media / Version 2
Codec ID                         : mp42
File size                        : 1.02 GiB
Duration                         : 2h 9mn
Overall bit rate                 : 1 132 Kbps
Encoded date                     : UTC 2011-04-09 19:10:07
Tagged date                      : UTC 2011-04-09 19:10:07
Writing library                  : AVS 

Video
ID                               : 1
Format                           : AVC
Format/Info                      : Advanced Video Codec
Format profile                   : Main@L5.1
Format settings, CABAC           : Yes
Format settings, ReFrames        : 2 frames
Format settings, GOP             : M=1, N=2
Codec ID                         : avc1
Codec ID/Info                    : Advanced Video Coding
Duration                         : 2h 9mn
Bit rate mode                    : Variable
Bit rate                         : 997 Kbps
Width                            : 720 pixels
Height                           : 400 pixels
Display aspect ratio             : 16:9
Frame rate mode                  : Constant
Frame rate                       : 29.970 fps
Color space                      : YUV
Chroma subsampling               : 4:2:0
Bit depth                        : 8 bits
Scan type                        : Progressive
Bits/(Pixel*Frame)               : 0.116
Stream size                      : 921 MiB (88%)
Language                         : English
Encoded date                     : UTC 2011-04-09 19:10:07
Tagged date                      : UTC 2011-04-09 19:10:07

Audio
ID                               : 2
Format                           : AAC
Format/Info                      : Advanced Audio Codec
Format profile                   : LC
Codec ID                         : 40
Duration                         : 2h 9mn
Bit rate mode                    : Constant
Bit rate                         : 128 Kbps
Channel(s)                       : 2 channels
Channel positions                : Front: L R
Sampling rate                    : 48.0 KHz
Compression mode                 : Lossy
Stream size                      : 116 MiB (11%)
Language                         : English
Encoded date                     : UTC 2011-04-09 19:10:07
Tagged date                      : UTC 2011-04-09 19:10:07
